<svg id="Layer_1" enable-background="new 0 0 506.469 506.469" height="512" viewBox="0 0 506.469 506.469" width="512" xmlns="http://www.w3.org/2000/svg"><path d="m302.44 364.137 128.065-146.466 23.251-90.325c-101.161 90.198-264.799 140.41-412.62 101.202-13.46-3.497-27.67 2.328-35.709 14.177-8.441 12.984-7.067 30.729 4.343 41.808 71.067 70.767 180.929 104.554 292.67 79.604z" fill="#eed572"/><path d="m495.255 89.127.145-52.687c1.205-6.024-3.012-12.047-9.036-13.252l-36.015-7.994c-7.831-1.807-15.059 4.819-13.855 12.65 1.807 13.855 3.614 34.335 3.012 52.407-35.16 152.995-200.541 304.48-388.532 319.861-13.855 1.205-25.3 11.445-28.914 25.3-3.614 15.059 3.614 31.323 18.071 37.95 91.561 43.371 207.819 37.95 305.404-24.697 122.284-79.515 188.875-227.256 149.72-349.538z" fill="#eed572"/><path d="m503.828 126.249c-1.852-12.563-4.681-24.969-8.572-37.122l.144-52.687c1.205-6.024-3.012-12.048-9.036-13.252l-36.015-7.993c-7.831-1.807-15.059 4.819-13.855 12.65 1.807 13.855 3.614 34.335 3.012 52.407-35.16 152.995-200.541 304.48-388.532 319.861-13.855 1.205-25.3 11.445-28.914 25.3-3.614 15.059 3.614 31.324 18.071 37.95 11.03 5.225 22.422 9.734 34.093 13.528 204.739-21.105 371.001-173.808 429.604-350.642z" fill="#fee67b"/><path d="m486.365 23.188-36.015-7.993c-7.831-1.807-15.059 4.819-13.855 12.65 1.807 13.855 3.614 34.335 3.012 52.407-35.16 152.995-200.541 304.48-388.532 319.861-13.855 1.205-25.3 11.445-28.914 25.3-3.614 15.059 3.614 31.324 18.071 37.95 11.03 5.225 22.422 9.734 34.093 13.528 4.413-.455 8.828-.976 13.244-1.557 177.298-83.574 324.099-233.371 407.837-404.545l.094-34.349c1.205-6.024-3.012-12.047-9.035-13.252z" fill="#feeb95"/><path d="m41.136 228.549c-13.46-3.497-27.67 2.328-35.709 14.177-8.441 12.984-7.067 30.729 4.343 41.808 37.145 36.988 84.893 63.865 137.964 77.541 54.086-41.485 101.569-89.922 141.116-142.822-87.831 28.258-171.867 29.414-247.714 9.296z" fill="#fee67b"/><path d="m190.033 240.146c-51.863 5.071-102.31.759-148.897-11.597-13.46-3.497-27.67 2.328-35.709 14.177-8.441 12.984-7.067 30.729 4.343 41.808 22.121 22.026 48.003 40.466 76.529 54.669 36.911-30.968 71.558-64.115 103.734-99.057z" fill="#feeb95"/></svg>